# xmcd
#
# Track frame offsets:
#	150
#	10022
#	25466
#	36946
#	45269
#	60035
#	72320
#	87453
#	101601
#	116283
#	129904
#	139985
#	150791
#	165899
#	175152
#	185160
#	198211
#	212551
#	225257
#	237276
#
# Disc length: 3305 seconds
#
# Revision: 1
# Processed by: cddbd v1.5.2PL0 Copyright (c) Steve Scherf et al.
# Submitted via: audiograbber 1.83.01
#
DISCID=ef0ce714
DTITLE=Julie London - Best Of 1959 - 1960
DYEAR=2016
DGENRE=Jazz
TTITLE0=Cuddle Up A Little Closer
TTITLE1=Be My Little Baby Bumble Bee
TTITLE2=Downtown Strutters' Ball
TTITLE3=Bill Bailey, Won't You Please Come Home
TTITLE4=Three O'Clock In The Morning
TTITLE5=Makin' Whoopee
TTITLE6=When I Fall In Love
TTITLE7=The Can't Take That Away From Me
TTITLE8=Love Is Here To Stay
TTITLE9=The More I See You
TTITLE10=You'd Be So Nice To Come Home To
TTITLE11=Lonesome Road
TTITLE12=The Thrill Is Gone
TTITLE13=Give Me The Simple Life
TTITLE14=You Stepped Out Of A Dream
TTITLE15='Round Midnight
TTITLE16=Misty
TTITLE17=In The Wee Small Hours Of The Morning
TTITLE18=You And The Night And The Music
TTITLE19=But Not For Me
EXTD=YEAR: 2016
EXTT0=
EXTT1=
EXTT2=
EXTT3=
EXTT4=
EXTT5=
EXTT6=
EXTT7=
EXTT8=
EXTT9=
EXTT10=
EXTT11=
EXTT12=
EXTT13=
EXTT14=
EXTT15=
EXTT16=
EXTT17=
EXTT18=
EXTT19=
PLAYORDER=
